<svg width="495" height="552" viewBox="0 0 495 552" fill="none" xmlns="http://www.w3.org/2000/svg">
<path d="M216.436 8.31822C235.659 -2.77274 259.342 -2.77274 278.564 8.31822L463.936 115.274C483.159 126.365 495 146.862 495 169.044V180.207H397.137C374.013 180.207 352.419 168.657 339.592 149.429C334.121 141.228 324.91 136.302 315.047 136.302H285.564C275.414 136.302 265.979 141.522 260.592 150.119C248.861 168.839 228.314 180.207 206.212 180.207H0V169.044C0 146.862 11.8415 126.365 31.064 115.274L216.436 8.31822Z" fill="#8DC8FC"/>
<path d="M0 237.86V330.992H74.8561C96.9582 330.992 117.504 319.624 129.235 300.904C134.623 292.308 144.058 287.087 154.208 287.087H183.691C193.554 287.087 202.764 292.013 208.235 300.214C221.062 319.443 242.657 330.992 265.781 330.992L495 330.992V237.86L397.137 237.86C360.023 237.86 325.058 221.639 301.136 193.955H299.899C276.933 221.557 242.688 237.86 206.212 237.86H0Z" fill="#026CF8"/>
<path d="M265.781 388.646L494.739 388.645C492.905 408.599 481.503 426.59 463.936 436.726L278.564 543.682C259.342 554.773 235.659 554.773 216.436 543.682L31.064 436.726C13.4973 426.59 2.09473 408.599 0.260721 388.646H74.8561C111.332 388.646 145.576 372.342 168.543 344.74H169.78C193.702 372.425 228.667 388.646 265.781 388.646Z" fill="#0051C7"/>
</svg>
